<?xml version="1.0" encoding="UTF-8" standalone="no"?>
<svg
   xmlns:dc="http://purl.org/dc/elements/1.1/"
   xmlns:cc="http://creativecommons.org/ns#"
   xmlns:rdf="http://www.w3.org/1999/02/22-rdf-syntax-ns#"
   xmlns:svg="http://www.w3.org/2000/svg"
   xmlns="http://www.w3.org/2000/svg"
   xmlns:sodipodi="http://sodipodi.sourceforge.net/DTD/sodipodi-0.dtd"
   xmlns:inkscape="http://www.inkscape.org/namespaces/inkscape"
   id="svg7821"
   version="1.1"
   inkscape:version="1.0 (4035a4fb49, 2020-05-01)"
   width="100"
   height="100"
   xml:space="preserve"
   sodipodi:docname="icon_email_envelope.svg"><metadata
     id="metadata7827"><rdf:RDF><cc:Work
         rdf:about=""><dc:format>image/svg+xml</dc:format><dc:type
           rdf:resource="http://purl.org/dc/dcmitype/StillImage" /><dc:title></dc:title></cc:Work></rdf:RDF></metadata><defs
     id="defs7825"><clipPath
   clipPathUnits="userSpaceOnUse"
   id="clipPath7865"><path
     d="m 3175,8125 c 0,-717.97 -582.03,-1300 -1300,-1300 -717.97,0 -1300,582.03 -1300,1300 0,717.97 582.03,1300 1300,1300 717.97,0 1300,-582.03 1300,-1300"
     id="path7867" /></clipPath><clipPath
   clipPathUnits="userSpaceOnUse"
   id="clipPath8209"><path
     d="m 1101.61,8805.58 c 0,-151.84 -123.087,-274.92 -274.915,-274.92 -151.847,0 -274.922,123.08 -274.922,274.92 0,151.83 123.075,274.91 274.922,274.91 151.828,0 274.915,-123.08 274.915,-274.91"
     id="path8211" /></clipPath><clipPath
   clipPathUnits="userSpaceOnUse"
   id="clipPath9291"><path
     d="m 3175,5000 c 0,-717.97 -582.03,-1300 -1300,-1300 -717.97,0 -1300,582.03 -1300,1300 0,717.97 582.03,1300 1300,1300 717.97,0 1300,-582.03 1300,-1300"
     id="path9293" /></clipPath><clipPath
   clipPathUnits="userSpaceOnUse"
   id="clipPath10007"><path
     d="m 9425,5000 c 0,-717.97 -582.03,-1300 -1300,-1300 -717.97,0 -1300,582.03 -1300,1300 0,717.97 582.03,1300 1300,1300 717.97,0 1300,-582.03 1300,-1300"
     id="path10009" /></clipPath><clipPath
   clipPathUnits="userSpaceOnUse"
   id="clipPath10259"><path
     d="m 6025.85,2673.61 v 0 230.45 h -186.94 v -35.93 0 35.93 H 5814.75 6050 v 59.18 -59.18 h -24.15 v -230.45"
     id="path10261" /></clipPath><clipPath
   clipPathUnits="userSpaceOnUse"
   id="clipPath10539"><path
     d="M 3175,1875 C 3175,1157.03 2592.97,575 1875,575 1157.03,575 575,1157.03 575,1875 c 0,717.97 582.03,1300 1300,1300 717.97,0 1300,-582.03 1300,-1300"
     id="path10541" /></clipPath><clipPath
   clipPathUnits="userSpaceOnUse"
   id="clipPath11045"><path
     d="m 9425,1875 c 0,-717.97 -582.03,-1300 -1300,-1300 -717.97,0 -1300,582.03 -1300,1300 0,717.97 582.03,1300 1300,1300 717.97,0 1300,-582.03 1300,-1300"
     id="path11047" /></clipPath>
	
	

	
	

	
	

	
	

	
	

	
	

	
	

	
	

	
	
	
	
	
	
















	
	
<clipPath
   clipPathUnits="userSpaceOnUse"
   id="clipPath7865-5"><path
     d="m 3175,8125 c 0,-717.97 -582.03,-1300 -1300,-1300 -717.97,0 -1300,582.03 -1300,1300 0,717.97 582.03,1300 1300,1300 717.97,0 1300,-582.03 1300,-1300"
     id="path7867-3" /></clipPath><clipPath
   clipPathUnits="userSpaceOnUse"
   id="clipPath8209-5"><path
     d="m 1101.61,8805.58 c 0,-151.84 -123.087,-274.92 -274.915,-274.92 -151.847,0 -274.922,123.08 -274.922,274.92 0,151.83 123.075,274.91 274.922,274.91 151.828,0 274.915,-123.08 274.915,-274.91"
     id="path8211-6" /></clipPath><clipPath
   clipPathUnits="userSpaceOnUse"
   id="clipPath9291-2"><path
     d="m 3175,5000 c 0,-717.97 -582.03,-1300 -1300,-1300 -717.97,0 -1300,582.03 -1300,1300 0,717.97 582.03,1300 1300,1300 717.97,0 1300,-582.03 1300,-1300"
     id="path9293-9" /></clipPath><clipPath
   clipPathUnits="userSpaceOnUse"
   id="clipPath10007-1"><path
     d="m 9425,5000 c 0,-717.97 -582.03,-1300 -1300,-1300 -717.97,0 -1300,582.03 -1300,1300 0,717.97 582.03,1300 1300,1300 717.97,0 1300,-582.03 1300,-1300"
     id="path10009-2" /></clipPath><clipPath
   clipPathUnits="userSpaceOnUse"
   id="clipPath10259-7"><path
     d="m 6025.85,2673.61 v 0 230.45 h -186.94 v -35.93 0 35.93 H 5814.75 6050 v 59.18 -59.18 h -24.15 v -230.45"
     id="path10261-0" /></clipPath><clipPath
   clipPathUnits="userSpaceOnUse"
   id="clipPath10539-9"><path
     d="M 3175,1875 C 3175,1157.03 2592.97,575 1875,575 1157.03,575 575,1157.03 575,1875 c 0,717.97 582.03,1300 1300,1300 717.97,0 1300,-582.03 1300,-1300"
     id="path10541-3" /></clipPath><clipPath
   clipPathUnits="userSpaceOnUse"
   id="clipPath11045-6"><path
     d="m 9425,1875 c 0,-717.97 -582.03,-1300 -1300,-1300 -717.97,0 -1300,582.03 -1300,1300 0,717.97 582.03,1300 1300,1300 717.97,0 1300,-582.03 1300,-1300"
     id="path11047-0" /></clipPath>
	
	
	
	
	
	
	
	
	
	
	
	
	

	
	
	
	
	
	
	















</defs><sodipodi:namedview
     pagecolor="#ffffff"
     bordercolor="#666666"
     borderopacity="1"
     objecttolerance="10"
     gridtolerance="10"
     guidetolerance="10"
     inkscape:pageopacity="0"
     inkscape:pageshadow="2"
     inkscape:window-width="1536"
     inkscape:window-height="801"
     id="namedview7823"
     showgrid="false"
     inkscape:zoom="1.9301187"
     inkscape:cx="83.95943"
     inkscape:cy="97.513798"
     inkscape:window-x="1358"
     inkscape:window-y="-8"
     inkscape:window-maximized="1"
     inkscape:current-layer="g7829"
     inkscape:document-rotation="0"
     inkscape:object-paths="true"
     inkscape:snap-intersection-paths="true"
     inkscape:snap-smooth-nodes="true"
     inkscape:snap-bbox="true"
     inkscape:snap-global="false" /><g
     id="g7829"
     inkscape:groupmode="layer"
     inkscape:label="ink_ext_XXXXXX"
     transform="matrix(1.25,0,0,-1.25,0,1250)"><text
       id="text5181"
       y="-899.86395"
       x="717.62445"
       style="font-weight:bold;font-size:160px;line-height:1;font-family:Montserrat;-inkscape-font-specification:'Montserrat Bold';writing-mode:lr-tb;opacity:0.06;fill:#8ae234;fill-opacity:1;fill-rule:evenodd;stroke:#babdb6;stroke-width:7.02387;stroke-linejoin:round;stroke-opacity:1;stop-color:#000000"
       xml:space="preserve"
       transform="scale(1,-1)"><tspan
         style="stroke-width:7.02387"
         y="-899.86395"
         x="717.62445"
         id="tspan5179"
         sodipodi:role="line" /></text><g
       id="g3022"
       transform="matrix(0.30701122,0,0,-0.30701122,-180.47095,978.10378)">
</g><g
       id="g3024"
       transform="matrix(0.30701122,0,0,-0.30701122,-180.47095,978.10378)">
</g><g
       id="g3026"
       transform="matrix(0.30701122,0,0,-0.30701122,-180.47095,978.10378)">
</g><g
       id="g3028"
       transform="matrix(0.30701122,0,0,-0.30701122,-180.47095,978.10378)">
</g><g
       id="g3030"
       transform="matrix(0.30701122,0,0,-0.30701122,-180.47095,978.10378)">
</g><g
       id="g3032"
       transform="matrix(0.30701122,0,0,-0.30701122,-180.47095,978.10378)">
</g><g
       id="g3034"
       transform="matrix(0.30701122,0,0,-0.30701122,-180.47095,978.10378)">
</g><g
       id="g3036"
       transform="matrix(0.30701122,0,0,-0.30701122,-180.47095,978.10378)">
</g><g
       id="g3038"
       transform="matrix(0.30701122,0,0,-0.30701122,-180.47095,978.10378)">
</g><g
       id="g3040"
       transform="matrix(0.30701122,0,0,-0.30701122,-180.47095,978.10378)">
</g><g
       id="g3042"
       transform="matrix(0.30701122,0,0,-0.30701122,-180.47095,978.10378)">
</g><g
       id="g3044"
       transform="matrix(0.30701122,0,0,-0.30701122,-180.47095,978.10378)">
</g><g
       id="g3046"
       transform="matrix(0.30701122,0,0,-0.30701122,-180.47095,978.10378)">
</g><g
       id="g3048"
       transform="matrix(0.30701122,0,0,-0.30701122,-180.47095,978.10378)">
</g><g
       id="g3050"
       transform="matrix(0.30701122,0,0,-0.30701122,-180.47095,978.10378)">
</g><text
       id="text5181-6"
       y="-1036.0093"
       x="879.71375"
       style="font-weight:bold;font-size:160px;line-height:1;font-family:Montserrat;-inkscape-font-specification:'Montserrat Bold';writing-mode:lr-tb;opacity:0.06;fill:#8ae234;fill-opacity:1;fill-rule:evenodd;stroke:#babdb6;stroke-width:7.02387;stroke-linejoin:round;stroke-opacity:1;stop-color:#000000"
       xml:space="preserve"
       transform="scale(1,-1)"><tspan
         style="stroke-width:7.02387"
         y="-1036.0093"
         x="879.71375"
         id="tspan5179-1"
         sodipodi:role="line" /></text><g
       transform="matrix(0.67900073,0,0,0.67900073,118.99952,333.85582)"
       id="g5210"><path
         id="path5045"
         d="m -58.023922,936.78155 c -0.531073,1.54242 -1.366536,2.9969 -2.597367,4.22773 l -48.234001,36.58035 c -6.29024,4.63447 -9.49601,4.63447 -15.67973,0 l -48.02551,-36.58035 c -1.23083,-1.23083 -2.06971,-2.68531 -2.60116,-4.22773 l 58.46616,-51.28928 c 3.8e-4,-3.8e-4 58.671608,51.28928 58.671608,51.28928 z"
         style="fill:#c38722;fill-opacity:1;stroke-width:0.379067" /><path
         id="path5047"
         d="m -160.60286,969.74976 h 87.924587 v -73.26683 h -87.924587 z"
         style="fill:#eeeeec;fill-opacity:1;stroke-width:0.379067" /><path
         id="path5049"
         d="m -169.21944,868.40582 52.5095,40.90323 52.644828,-40.90702 c 1.945371,0.99278 3.54276,2.53141 4.608696,4.4366 l -49.398874,38.80016 c -6.23527,4.6015 -9.5142,4.67466 -15.67973,0 l -49.3223,-38.73799 c 1.06252,-1.9268 2.66712,-3.49121 4.63788,-4.49498 z"
         style="fill:#e8ab54;stroke-width:0.379067" /><path
         id="path5053"
         d="m -116.64019,892.81925 58.616647,43.9623 V 874.5016 c 0,-6.07038 -4.920289,-10.99067 -10.990668,-10.99067 h -95.251959 c -6.07038,0 -10.99067,4.92029 -10.99067,10.99067 v 62.27995 c 0,0 58.61665,-43.9623 58.61665,-43.9623 z"
         style="fill:#e9b96e;stroke-width:0.379067" /><path
         id="path5055"
         d="m -67.842136,863.63223 c 2.374097,0.25284 4.520753,1.24561 6.195092,2.76946 l -55.062896,42.91115 -54.93477,-42.91115 c 1.67775,-1.52764 3.821,-2.517 6.2023,-2.77325 z"
         style="fill:#e9b96e;fill-opacity:1;stroke-width:0.379067" /><path
         id="path5057"
         d="m -173.85732,869.23749 c 1.06252,-1.92717 2.67053,-3.4912 4.63788,-4.49876 l 52.5095,40.89981 52.644828,-40.90323 c 1.945371,0.99278 3.54276,2.53141 4.608696,4.4366 l -49.398874,38.8104 c -6.92025,5.12537 -8.59838,5.35963 -15.67973,0 -3.8e-4,0 -49.3223,-38.74482 -49.3223,-38.74482 z"
         style="fill:#f3cd96;fill-opacity:1;stroke-width:0.379067" /><text
         transform="scale(1,-1)"
         id="text5155"
         y="-929.29547"
         x="-140.9153"
         style="font-weight:bold;font-size:46.9077px;line-height:4.2;font-family:Montserrat;-inkscape-font-specification:'Montserrat Bold';writing-mode:lr-tb;opacity:1;fill:#7a7a7a;fill-opacity:1;fill-rule:evenodd;stroke:none;stroke-width:0.781795;stroke-linecap:round;stroke-linejoin:round;stroke-dashoffset:30;stroke-opacity:1;stop-color:#000000"
         xml:space="preserve"><tspan
           style="fill:#7a7a7a;fill-opacity:1;stroke:none;stroke-width:0.781795"
           y="-929.29547"
           x="-140.9153"
           id="tspan5153"
           sodipodi:role="line">@</tspan></text></g></g></svg>
